<svg width="22" height="22" viewBox="0 0 22 22" fill="none" xmlns="http://www.w3.org/2000/svg">
<mask id="mask0_1025_70" style="mask-type:alpha" maskUnits="userSpaceOnUse" x="0" y="9" width="22" height="12">
<path d="M5.09167 16.1917C5.34167 16.1167 5.79167 16.0083 6.09167 15.95C6.39167 15.9 6.83334 15.85 7.06667 15.8417C7.50834 15.8333 7.50834 15.8333 7.45834 16.0667C7.42501 16.1917 7.36667 16.3583 7.33334 16.4417C7.29167 16.525 7.12501 16.6 6.95001 16.625C6.77501 16.65 6.40834 16.7083 6.13334 16.7583C5.85834 16.8 5.46667 16.8917 5.25834 16.9583C5.05001 17.025 4.78334 17.15 4.65001 17.25C4.52501 17.3417 4.42501 17.4833 4.42501 17.5667C4.42501 17.6417 4.52501 17.8083 4.65001 17.925C4.78334 18.0417 5.01667 18.2167 5.17501 18.3083C5.33334 18.4 5.76667 18.575 6.13334 18.6917C6.50001 18.8167 7.17501 18.9917 7.63334 19.075C8.09167 19.1667 8.90001 19.2833 9.42501 19.3417C10 19.4 10.8667 19.425 11.5917 19.3917C12.275 19.3667 12.9667 19.2917 13.175 19.225C13.3833 19.1583 13.6667 19.05 13.8 18.9833C13.9333 18.9167 14.075 18.7833 14.1167 18.7C14.15 18.6 14.1333 18.475 14.0667 18.375C14 18.2833 13.7833 18.1 13.5833 17.9583C13.3833 17.825 13.2083 17.7167 13.1917 17.7083C13.1833 17.7083 13.2083 17.55 13.2583 17.3583C13.3 17.1583 13.375 17 13.425 17C13.475 17 13.6667 17.0917 13.8583 17.2C14.0583 17.3083 14.3583 17.5583 14.525 17.7417C14.7 17.9333 14.8667 18.1833 14.8917 18.3167C14.925 18.4417 14.925 18.675 14.9 18.8333C14.8667 19.0333 14.7417 19.225 14.4917 19.4417C14.2417 19.6667 13.95 19.8167 13.55 19.9333C13.225 20.025 12.9333 20.125 12.8833 20.15C12.8333 20.175 12.0333 20.1917 11.0917 20.175C10.15 20.1667 9.00834 20.1 8.55001 20.0333C8.09167 19.9667 7.32501 19.8167 6.84167 19.7C6.35834 19.575 5.68334 19.375 5.34167 19.2417C5.00001 19.1083 4.53334 18.8583 4.30834 18.6917C4.08334 18.5167 3.83334 18.2417 3.74167 18.0833C3.65834 17.925 3.59167 17.6833 3.59167 17.5417C3.59167 17.4083 3.67501 17.1583 3.78334 17C3.88334 16.8417 4.12501 16.625 4.30001 16.5167C4.48334 16.4167 4.84167 16.2667 5.09167 16.1917Z" fill="url(#paint0_linear_1025_70)"/>
<path d="M18.7583 12.825C19.4667 12.4667 20.3083 11.9833 20.6333 11.7583C20.9583 11.5333 21.2333 11.35 21.2583 11.3417C21.2833 11.3333 21.4 11.4583 21.5333 11.625C21.6583 11.7833 21.7583 11.925 21.7583 11.9333C21.7667 11.95 21.4583 12.1667 21.075 12.425C20.6917 12.6833 20.0667 13.0667 19.675 13.275C19.2833 13.4833 18.475 13.8667 17.8833 14.1333C17.2917 14.3917 16.2417 14.8 15.55 15.0417C14.8667 15.2833 14.2 15.5 14.075 15.5333C13.85 15.5833 13.8417 15.575 13.9167 15.35C13.9583 15.225 14.0417 15.025 14.1 14.9C14.1917 14.7083 14.3583 14.6167 14.9667 14.4083C15.375 14.2667 16.1083 14 16.5917 13.8167C17.075 13.625 18.05 13.1833 18.7583 12.825Z" fill="url(#paint1_linear_1025_70)"/>
<path d="M0.166626 10.2083C0.174959 10.1583 0.291626 10.025 0.441626 9.89999L0.716626 9.67499L1.00829 10.025C1.16663 10.2167 1.57496 10.6667 1.92496 11.025C2.26663 11.3833 2.94163 11.9833 3.42496 12.3583C3.89996 12.7333 4.78329 13.3333 5.38329 13.6833C5.97496 14.0333 6.69996 14.5167 6.98329 14.7667C7.39163 15.1083 7.50829 15.2583 7.50829 15.4333C7.50829 15.5667 7.47496 15.6667 7.42496 15.6667C7.37496 15.6667 6.89996 15.4333 6.36663 15.1583C5.82496 14.875 5.01663 14.4167 4.56663 14.1333C4.11663 13.85 3.36663 13.325 2.89996 12.95C2.43329 12.5833 1.62496 11.8333 1.10829 11.2833C0.591626 10.7417 0.166626 10.25 0.166626 10.2083Z" fill="url(#paint2_linear_1025_70)"/>
</mask>
<g mask="url(#mask0_1025_70)">
<rect width="22" height="22" fill="url(#paint3_linear_1025_70)"/>
</g>
<path fill-rule="evenodd" clip-rule="evenodd" d="M22 0H0V22L3.66569e-05 22H22V8.82149e-06L22 0ZM22 0V22L3.66569e-05 22V8.82149e-06L22 0ZM11.0917 2.45833C11.3917 1.96667 11.8667 1.325 12.1417 1.03333C12.5584 0.6 12.7 0.5 12.9167 0.5C13.0584 0.5 13.2917 0.558333 13.425 0.625C13.5584 0.691667 13.75 0.85 13.8334 0.975C13.9167 1.10833 14.0667 1.45 14.1667 1.75C14.2667 2.075 14.3751 2.70833 14.425 3.33333C14.4667 3.90833 14.6417 5.18333 14.8 6.16667C14.9667 7.15 15.125 8.31667 15.15 8.75C15.1834 9.44167 15.15 9.73333 14.8834 11.0417C14.7167 11.8667 14.5084 12.8 14.4084 13.125C14.3167 13.45 14.0084 14.3083 13.7167 15.0417C13.425 15.775 13.1084 16.675 13.0084 17.0417C12.9084 17.4083 12.8084 18.0167 12.7167 19.0667L12.3 19.1167C12.0667 19.1417 11.4417 19.1667 10.9 19.1667C10.3667 19.1667 9.48338 19.1083 8.94172 19.0417C8.40838 18.9667 7.59172 18.8167 7.13338 18.7C6.67505 18.5833 6.27505 18.4667 6.23338 18.4333C6.20005 18.4 6.29172 18.225 6.44172 18.0333C6.59172 17.8417 6.90838 17.4667 7.14172 17.2C7.40005 16.9 7.61672 16.5333 7.70838 16.25C7.81672 15.9417 7.85005 15.6583 7.81672 15.375C7.79172 15.125 7.73338 14.9417 7.66672 14.925C7.60005 14.9083 7.39172 14.7417 7.20005 14.55C7.01672 14.3583 6.83338 14.0917 6.79172 13.9583C6.75838 13.8083 6.77505 13.55 6.83338 13.3333C6.89172 13.125 7.05005 12.8 7.42505 12.25L7.02505 12.1167C6.80838 12.0417 6.20005 11.7583 5.67505 11.4917C5.15005 11.225 4.40005 10.7667 4.00838 10.475C3.61672 10.1917 3.02505 9.69167 2.68338 9.375C2.34172 9.05 1.80838 8.5 1.49172 8.14167C1.05838 7.65 0.925049 7.44167 0.925049 7.25C0.925049 7.1 1.01672 6.9 1.15005 6.74167C1.28338 6.59167 1.71672 6.275 2.13338 6.03333C2.54172 5.79167 3.31672 5.4 3.84172 5.16667C4.36672 4.925 4.85005 4.69167 4.90838 4.63333C4.96672 4.58333 5.01672 4.475 5.00838 4.39167C5.00838 4.31667 5.09172 4.04167 5.19172 3.78333C5.31672 3.48333 5.53338 3.18333 5.80005 2.925C6.06672 2.675 6.40005 2.45833 6.71672 2.34167C7.13338 2.18333 7.32505 2.15833 7.88338 2.19167C8.25005 2.21667 8.71672 2.29167 8.92505 2.36667C9.13338 2.44167 9.44172 2.6 9.61672 2.725C9.79172 2.85833 10.0334 3.10833 10.15 3.29167C10.3417 3.58333 10.3751 3.60833 10.4584 3.48333C10.485 3.44334 10.578 3.292 10.7045 3.08614L10.7047 3.08583L10.705 3.08531C10.8157 2.90525 10.9519 2.6836 11.0917 2.45833ZM4.91667 20.1583C4.91667 20.1083 5.03334 19.9 5.18334 19.6917C5.40001 19.4 5.49167 19.325 5.62501 19.3667C5.70782 19.3943 6.05354 19.4847 6.45864 19.5908L6.45906 19.5909L6.71667 19.6583C7.22501 19.7917 8.06667 19.9583 8.59167 20.0333C9.11667 20.1 10.2833 20.175 11.1917 20.1833C12.2583 20.2 12.8083 20.1833 12.7833 20.125C12.75 20.0694 12.7639 20.0694 12.825 20.125C12.875 20.175 12.925 20.325 12.9417 20.4583C12.9667 20.6917 12.9333 20.725 12.425 20.975C12.125 21.125 11.5917 21.3 11.2417 21.375C10.8667 21.45 10.15 21.5 9.55001 21.5C8.84167 21.5 8.24167 21.45 7.65834 21.3333C7.18334 21.2333 6.55834 21.0667 6.25834 20.95C5.95834 20.8333 5.54167 20.625 5.32501 20.4917C5.10001 20.3583 4.92501 20.2083 4.91667 20.1583ZM11.1167 4.825C11.3084 4.66667 11.6334 4.425 11.8417 4.275C12.05 4.125 12.2417 4.00834 12.275 4.00834C12.3167 4 12.3584 4.08334 12.375 4.18334C12.4 4.29167 12.4584 4.99167 12.5 5.75C12.55 6.50834 12.5917 7.26667 12.5917 7.43334C12.5917 7.675 12.525 7.81667 12.3167 8.04167C12.175 8.2 11.9584 8.34167 11.85 8.35C11.6834 8.375 11.575 8.275 11.2917 7.875C11.025 7.5 10.9084 7.25 10.8417 6.875C10.8 6.6 10.7667 6.09167 10.775 5.74167C10.7799 5.37536 10.7819 5.22091 10.8472 5.10098C10.8949 5.01355 10.9762 4.94446 11.1167 4.825ZM4.05003 7.275C4.1417 7.10834 4.4167 6.79167 4.65837 6.575C4.90837 6.35 5.1417 6.18334 5.18337 6.20834C5.22503 6.23334 5.28337 6.375 5.30837 6.51667C5.3417 6.66667 5.4417 6.94167 5.53337 7.125C5.62503 7.30834 5.7917 7.56667 5.90837 7.70834C6.02503 7.85 6.45837 8.23334 6.87503 8.55834C7.2917 8.89167 7.75837 9.225 7.90003 9.29167C8.05003 9.35833 8.25003 9.41667 8.3417 9.41667C8.43337 9.41667 8.52503 9.38334 8.55003 9.33334C8.57503 9.28334 8.6667 9.21667 8.75837 9.16667C8.90003 9.1 8.9417 9.125 9.05003 9.33334C9.1667 9.56667 9.1667 9.59167 8.98337 9.75C8.88337 9.84167 8.68337 9.94167 8.55003 9.96667C8.4167 10 8.0917 9.975 7.8417 9.91667C7.5417 9.84167 7.10003 9.625 6.5917 9.29167C6.28823 9.09324 5.81718 8.79673 5.39038 8.52806L5.38992 8.52778L5.38987 8.52774C5.20742 8.41289 5.03307 8.30314 4.88337 8.20834C4.37503 7.9 3.95003 7.625 3.92503 7.60834C3.90003 7.59167 3.95837 7.44167 4.05003 7.275Z" fill="url(#paint4_linear_1025_70)"/>
<defs>
<linearGradient id="paint0_linear_1025_70" x1="12.9358" y1="16.1649" x2="11.6311" y2="21.0047" gradientUnits="userSpaceOnUse">
<stop stop-color="#FCBD38"/>
<stop offset="1" stop-color="#F7931E"/>
</linearGradient>
<linearGradient id="paint1_linear_1025_70" x1="20.3788" y1="11.6576" x2="18.7177" y2="16.0744" gradientUnits="userSpaceOnUse">
<stop stop-color="#FCBD38"/>
<stop offset="1" stop-color="#F7931E"/>
</linearGradient>
<linearGradient id="paint2_linear_1025_70" x1="6.2235" y1="10.1244" x2="3.1313" y2="15.513" gradientUnits="userSpaceOnUse">
<stop stop-color="#FCBD38"/>
<stop offset="1" stop-color="#F7931E"/>
</linearGradient>
<linearGradient id="paint3_linear_1025_70" x1="18.15" y1="1.65" x2="5.775" y2="19.25" gradientUnits="userSpaceOnUse">
<stop stop-color="#FCBD38"/>
<stop offset="1" stop-color="#F7931E"/>
</linearGradient>
<linearGradient id="paint4_linear_1025_70" x1="11" y1="0" x2="11" y2="22" gradientUnits="userSpaceOnUse">
<stop stop-color="#06E789"/>
<stop offset="1" stop-color="#009E00"/>
</linearGradient>
</defs>
</svg>
