<svg width="74" height="72" viewBox="0 0 74 72" fill="none" xmlns="http://www.w3.org/2000/svg">
<mask id="mask0_1025_70" style="mask-type:alpha" maskUnits="userSpaceOnUse" x="0" y="32" width="73" height="36">
<path d="M16.9722 53.9722C17.8055 53.7222 19.3055 53.3611 20.3055 53.1667C21.3055 53 22.7777 52.8333 23.5555 52.8056C25.0277 52.7778 25.0277 52.7778 24.8611 53.5556C24.7499 53.9722 24.5555 54.5278 24.4444 54.8056C24.3055 55.0833 23.7499 55.3333 23.1666 55.4167C22.5833 55.5 21.3611 55.6944 20.4444 55.8611C19.5277 56 18.2222 56.3056 17.5277 56.5278C16.8333 56.75 15.9444 57.1667 15.4999 57.5C15.0833 57.8056 14.7499 58.2778 14.7499 58.5556C14.7499 58.8056 15.0833 59.3611 15.4999 59.75C15.9444 60.1389 16.7222 60.7222 17.2499 61.0278C17.7777 61.3333 19.2222 61.9167 20.4444 62.3056C21.6666 62.7222 23.9166 63.3056 25.4444 63.5833C26.9722 63.8889 29.6666 64.2778 31.4166 64.4722C33.3333 64.6667 36.2222 64.75 38.6388 64.6389C40.9166 64.5556 43.2222 64.3056 43.9166 64.0833C44.6111 63.8611 45.5555 63.5 45.9999 63.2778C46.4444 63.0556 46.9166 62.6111 47.0555 62.3333C47.1666 62 47.1111 61.5833 46.8888 61.25C46.6666 60.9444 45.9444 60.3333 45.2777 59.8611C44.6111 59.4167 44.0277 59.0556 43.9722 59.0278C43.9444 59.0278 44.0277 58.5 44.1944 57.8611C44.3333 57.1944 44.5833 56.6667 44.7499 56.6667C44.9166 56.6667 45.5555 56.9722 46.1944 57.3333C46.8611 57.6944 47.8611 58.5278 48.4166 59.1389C48.9999 59.7778 49.5555 60.6111 49.6388 61.0556C49.7499 61.4722 49.7499 62.25 49.6666 62.7778C49.5555 63.4444 49.1388 64.0833 48.3055 64.8056C47.4722 65.5556 46.4999 66.0556 45.1666 66.4444C44.0833 66.75 43.1111 67.0833 42.9444 67.1667C42.7777 67.25 40.1111 67.3056 36.9722 67.25C33.8333 67.2222 30.0277 67 28.4999 66.7778C26.9722 66.5556 24.4166 66.0556 22.8055 65.6667C21.1944 65.25 18.9444 64.5833 17.8055 64.1389C16.6666 63.6944 15.1111 62.8611 14.3611 62.3056C13.6111 61.7222 12.7777 60.8056 12.4722 60.2778C12.1944 59.75 11.9722 58.9444 11.9722 58.4722C11.9722 58.0278 12.2499 57.1944 12.6111 56.6667C12.9444 56.1389 13.7499 55.4167 14.3333 55.0556C14.9444 54.7222 16.1388 54.2222 16.9722 53.9722Z" fill="url(#paint0_linear_1025_70)"/>
<path d="M62.5277 42.75C64.8888 41.5556 67.6944 39.9445 68.7777 39.1945C69.861 38.4445 70.7777 37.8333 70.861 37.8056C70.9444 37.7778 71.3332 38.1945 71.7777 38.75C72.1944 39.2778 72.5277 39.75 72.5277 39.7778C72.5555 39.8333 71.5277 40.5556 70.2499 41.4167C68.9721 42.2778 66.8888 43.5556 65.5832 44.25C64.2777 44.9445 61.5832 46.2222 59.611 47.1111C57.6388 47.9722 54.1388 49.3334 51.8332 50.1389C49.5555 50.9445 47.3332 51.6667 46.9166 51.7778C46.1666 51.9445 46.1388 51.9167 46.3888 51.1667C46.5277 50.75 46.8055 50.0834 46.9999 49.6667C47.3055 49.0278 47.861 48.7222 49.8888 48.0278C51.2499 47.5556 53.6944 46.6667 55.3055 46.0556C56.9166 45.4167 60.1666 43.9445 62.5277 42.75Z" fill="url(#paint1_linear_1025_70)"/>
<path d="M0.555542 34.0278C0.58332 33.8611 0.972209 33.4167 1.47221 33L2.38888 32.25L3.3611 33.4167C3.88888 34.0556 5.24999 35.5556 6.41665 36.75C7.55554 37.9444 9.80554 39.9444 11.4167 41.1944C13 42.4444 15.9444 44.4444 17.9444 45.6111C19.9167 46.7778 22.3333 48.3889 23.2778 49.2222C24.6389 50.3611 25.0278 50.8611 25.0278 51.4444C25.0278 51.8889 24.9167 52.2222 24.75 52.2222C24.5833 52.2222 23 51.4444 21.2222 50.5278C19.4167 49.5833 16.7222 48.0556 15.2222 47.1111C13.7222 46.1667 11.2222 44.4167 9.66665 43.1667C8.1111 41.9444 5.41665 39.4444 3.69443 37.6111C1.97221 35.8056 0.555542 34.1667 0.555542 34.0278Z" fill="url(#paint2_linear_1025_70)"/>
</mask>
<g mask="url(#mask0_1025_70)">
<rect width="73.3333" height="73.3333" fill="url(#paint3_linear_1025_70)"/>
</g>
<path fill-rule="evenodd" clip-rule="evenodd" d="M73.3333 0H0V2.86102e-06L73.3333 0ZM36.9723 8.19445C37.9723 6.55556 39.5556 4.41667 40.4723 3.44445C41.8611 2 42.3334 1.66667 43.0556 1.66667C43.5278 1.66667 44.3056 1.86111 44.75 2.08333C45.1945 2.30556 45.8334 2.83333 46.1111 3.25C46.3889 3.69445 46.8889 4.83333 47.2223 5.83333C47.5556 6.91667 47.9167 9.02778 48.0834 11.1111C48.2223 13.0278 48.8056 17.2778 49.3334 20.5556C49.8889 23.8333 50.4167 27.7222 50.5 29.1667C50.6111 31.4722 50.5 32.4444 49.6111 36.8056C49.0556 39.5556 48.3611 42.6667 48.0278 43.75C47.7223 44.8333 46.6945 47.6944 45.7223 50.1389C44.75 52.5833 43.6945 55.5833 43.3611 56.8056C43.0278 58.0278 42.6945 60.0556 42.3889 63.5556L41 63.7222C40.2223 63.8055 38.1389 63.8889 36.3334 63.8889C34.5556 63.8889 31.6111 63.6944 29.8056 63.4722C28.0278 63.2222 25.3056 62.7222 23.7778 62.3333C22.25 61.9444 20.9167 61.5556 20.7778 61.4444C20.6667 61.3333 20.9723 60.75 21.4723 60.1111C21.9723 59.4722 23.0278 58.2222 23.8056 57.3333C24.6667 56.3333 25.3889 55.1111 25.6945 54.1667C26.0556 53.1389 26.1667 52.1944 26.0556 51.25C25.9723 50.4167 25.7778 49.8056 25.5556 49.75C25.3334 49.6944 24.6389 49.1389 24 48.5C23.3889 47.8611 22.7778 46.9722 22.6389 46.5278C22.5278 46.0278 22.5834 45.1667 22.7778 44.4444C22.9723 43.75 23.5 42.6667 24.75 40.8333L23.4167 40.3889C22.6945 40.1389 20.6667 39.1944 18.9167 38.3056C17.1667 37.4167 14.6667 35.8889 13.3611 34.9167C12.0556 33.9722 10.0834 32.3056 8.94448 31.25C7.80559 30.1667 6.02781 28.3333 4.97225 27.1389C3.52781 25.5 3.08336 24.8056 3.08336 24.1667C3.08336 23.6667 3.38892 23 3.83336 22.4722C4.27781 21.9722 5.72225 20.9167 7.11114 20.1111C8.47225 19.3056 11.0556 18 12.8056 17.2222C14.5556 16.4167 16.1667 15.6389 16.3611 15.4444C16.5556 15.2778 16.7223 14.9167 16.6945 14.6389C16.6945 14.3889 16.9723 13.4722 17.3056 12.6111C17.7223 11.6111 18.4445 10.6111 19.3334 9.75C20.2223 8.91667 21.3334 8.19445 22.3889 7.80556C23.7778 7.27778 24.4167 7.19445 26.2778 7.30556C27.5 7.38889 29.0556 7.63889 29.75 7.88889C30.4445 8.13889 31.4723 8.66667 32.0556 9.08333C32.6389 9.52778 33.4445 10.3611 33.8334 10.9722C34.4723 11.9444 34.5834 12.0278 34.8611 11.6111C34.95 11.4778 35.26 10.9734 35.6816 10.2873L35.6816 10.2872C36.0508 9.68649 36.5054 8.94652 36.9723 8.19445ZM16.3889 67.1944C16.3889 67.0278 16.7778 66.3333 17.2778 65.6389C18 64.6667 18.3055 64.4167 18.75 64.5556C19.0262 64.6476 20.1795 64.9494 21.5307 65.303C21.8103 65.3762 22.0984 65.4516 22.3889 65.5278C24.0833 65.9722 26.8889 66.5278 28.6389 66.7778C30.3889 67 34.2778 67.25 37.3055 67.2778C40.8611 67.3333 42.6944 67.2778 42.6111 67.0833C42.5 66.8981 42.5463 66.8981 42.75 67.0833C42.9167 67.25 43.0833 67.75 43.1389 68.1944C43.2222 68.9722 43.1111 69.0833 41.4167 69.9167C40.4167 70.4167 38.6389 71 37.4722 71.25C36.2222 71.5 33.8333 71.6667 31.8333 71.6667C29.4722 71.6667 27.4722 71.5 25.5278 71.1111C23.9444 70.7778 21.8611 70.2222 20.8611 69.8333C19.8611 69.4444 18.4722 68.75 17.75 68.3056C17 67.8611 16.4167 67.3611 16.3889 67.1944ZM35.9166 19.1389C35.9327 17.9178 35.9395 17.403 36.1573 17.0033C36.3161 16.7118 36.5871 16.4815 37.0555 16.0833C37.6944 15.5556 38.7778 14.75 39.4722 14.25C40.1666 13.75 40.8055 13.3611 40.9166 13.3611C41.0555 13.3333 41.1944 13.6111 41.25 13.9444C41.3333 14.3056 41.5278 16.6389 41.6666 19.1667C41.8333 21.6944 41.9722 24.2222 41.9722 24.7778C41.9722 25.5833 41.75 26.0556 41.0555 26.8056C40.5833 27.3333 39.8611 27.8056 39.5 27.8333C38.9444 27.9167 38.5833 27.5833 37.6389 26.25C36.75 25 36.3611 24.1667 36.1389 22.9167C36 22 35.8889 20.3056 35.9166 19.1389ZM13.5 24.25C13.8055 23.6944 14.7222 22.6389 15.5278 21.9167C16.3611 21.1667 17.1389 20.6111 17.2778 20.6944C17.4166 20.7778 17.6111 21.25 17.6944 21.7222C17.8055 22.2222 18.1389 23.1389 18.4444 23.75C18.75 24.3611 19.3055 25.2222 19.6944 25.6944C20.0833 26.1667 21.5278 27.4444 22.9166 28.5278C24.3055 29.6389 25.8611 30.75 26.3333 30.9722C26.8333 31.1944 27.5 31.3889 27.8055 31.3889C28.1111 31.3889 28.4166 31.2778 28.5 31.1111C28.5833 30.9444 28.8889 30.7222 29.1944 30.5556C29.6666 30.3333 29.8055 30.4167 30.1666 31.1111C30.5555 31.8889 30.5555 31.9722 29.9444 32.5C29.6111 32.8056 28.9444 33.1389 28.5 33.2222C28.0555 33.3333 26.9722 33.25 26.1389 33.0556C25.1389 32.8056 23.6666 32.0833 21.9722 30.9722C20.9602 30.3105 19.3891 29.3216 17.966 28.4257C17.3578 28.0429 16.7767 27.6771 16.2778 27.3611C14.5833 26.3333 13.1666 25.4167 13.0833 25.3611C13 25.3056 13.1944 24.8056 13.5 24.25Z" fill="url(#paint4_linear_1025_70)"/>
<defs>
<linearGradient id="paint0_linear_1025_70" x1="43.1191" y1="53.883" x2="38.7701" y2="70.0155" gradientUnits="userSpaceOnUse">
<stop stop-color="#FCBD38"/>
<stop offset="1" stop-color="#F7931E"/>
</linearGradient>
<linearGradient id="paint1_linear_1025_70" x1="67.9291" y1="38.8585" x2="62.3922" y2="53.5812" gradientUnits="userSpaceOnUse">
<stop stop-color="#FCBD38"/>
<stop offset="1" stop-color="#F7931E"/>
</linearGradient>
<linearGradient id="paint2_linear_1025_70" x1="20.7451" y1="33.7479" x2="10.4378" y2="51.7102" gradientUnits="userSpaceOnUse">
<stop stop-color="#FCBD38"/>
<stop offset="1" stop-color="#F7931E"/>
</linearGradient>
<linearGradient id="paint3_linear_1025_70" x1="60.5" y1="5.5" x2="19.25" y2="64.1667" gradientUnits="userSpaceOnUse">
<stop stop-color="#FCBD38"/>
<stop offset="1" stop-color="#F7931E"/>
</linearGradient>
<linearGradient id="paint4_linear_1025_70" x1="36.6667" y1="0" x2="36.6667" y2="71.6667" gradientUnits="userSpaceOnUse">
<stop stop-color="#06E789"/>
<stop offset="1" stop-color="#009E00"/>
</linearGradient>
</defs>
</svg>
